<svg xmlns="http://www.w3.org/2000/svg" version="1.1" xmlns:xlink="http://www.w3.org/1999/xlink" xmlns:svgjs="http://svgjs.dev/svgjs" width="2000" height="1500" viewBox="0 0 2000 1500"><rect width="2000" height="1500" fill="#4a5d5e"></rect><g transform="matrix(0.75,0,0,0.75,249.090909090909,631.9726159010124)"><svg viewBox="0 0 396 62" data-background-color="#4a5d5e" preserveAspectRatio="xMidYMid meet" height="313" width="2000" xmlns="http://www.w3.org/2000/svg" xmlns:xlink="http://www.w3.org/1999/xlink"><g id="tight-bounds" transform="matrix(1,0,0,1,0.2400000000000091,0.1723016576665657)"><svg viewBox="0 0 395.52 61.65539668466688" height="61.65539668466688" width="395.52"><g><svg viewBox="0 0 539.4399748894158 84.09027518045528" height="61.65539668466688" width="395.52"><g><rect width="7.545619698445219" height="84.09027518045528" x="116.62142404320821" y="0" fill="#d2dbc8" opacity="1" stroke-width="0" stroke="transparent" fill-opacity="1" class="rect-yte-0" data-fill-palette-color="primary" rx="1%" id="yte-0" data-palette-color="#d2dbc8"></rect></g><g transform="matrix(1,0,0,1,143.91997488941578,0.20917978900610024)"><svg viewBox="0 0 395.52 83.67191560244308" height="83.67191560244308" width="395.52"><g id="textblocktransform"><svg viewBox="0 0 395.52 83.67191560244308" height="83.67191560244308" width="395.52" id="textblock"><g><svg viewBox="0 0 395.52 83.67191560244308" height="83.67191560244308" width="395.52"><g transform="matrix(1,0,0,1,0,0)"><svg width="395.52" viewBox="1.9 -37.8 180.09 38.099999999999994" height="83.67191560244308" data-palette-color="#d2dbc8"><path d="M7.75 0.1L7.35 0.1Q6.25 0.1 5.83-0.2 5.4-0.5 5.4-1L5.4-1 5.4-22.55 2.85-22.55Q1.9-22.55 1.9-24.05L1.9-24.05 1.9-24.65Q1.9-26.15 2.85-26.15L2.85-26.15 5.4-26.15 5.4-31.2Q5.4-33.4 6.08-34.85 6.75-36.3 8.08-37.05 9.4-37.8 11.4-37.8L11.4-37.8Q12.15-37.8 13.08-37.6 14-37.4 14.68-37.02 15.35-36.65 15.35-36.1L15.35-36.1Q15.35-35.95 15.33-35.55 15.3-35.15 15.23-34.7 15.15-34.25 14.98-33.93 14.8-33.6 14.55-33.6L14.55-33.6Q14.2-33.6 13.7-33.85 13.2-34.1 12.05-34.1L12.05-34.1Q10.75-34.1 10.23-33.5 9.7-32.9 9.7-31.2L9.7-31.2 9.7-26.15 13.95-26.15Q14.95-26.15 14.95-24.65L14.95-24.65 14.95-24.05Q14.95-22.55 13.95-22.55L13.95-22.55 9.7-22.55 9.7-1Q9.7-0.5 9.28-0.2 8.85 0.1 7.75 0.1L7.75 0.1ZM22.95 0.1L22.75 0.1Q21.7 0.1 21.22-0.2 20.75-0.5 20.75-1L20.75-1 20.75-18.65Q20.75-20.7 20.62-22 20.5-23.3 20.37-24.05 20.25-24.8 20.25-25.1L20.25-25.1Q20.25-25.35 20.55-25.55 20.85-25.75 21.3-25.88 21.75-26 22.25-26.05 22.75-26.1 23.15-26.1L23.15-26.1Q23.6-26.1 23.87-25.78 24.15-25.45 24.37-24.7 24.6-23.95 24.8-22.7L24.8-22.7Q25.65-24 26.72-24.83 27.8-25.65 29.05-26.05 30.3-26.45 31.75-26.45L31.75-26.45Q32.6-26.45 33.02-26.05 33.45-25.65 33.45-24.85L33.45-24.85Q33.45-24.3 33.37-23.78 33.3-23.25 33.15-22.85 33-22.45 32.82-22.2 32.65-21.95 32.4-21.95L32.4-21.95Q32.05-21.95 31.52-22.15 31-22.35 29.85-22.35L29.85-22.35Q28.15-22.35 26.82-21.4 25.5-20.45 25.05-18.8L25.05-18.8 25.05-1Q25.05-0.5 24.55-0.2 24.05 0.1 22.95 0.1L22.95 0.1ZM48.2 0.3L48.2 0.3Q42.45 0.3 39.37-2.7 36.3-5.7 36.3-12.95L36.3-12.95Q36.3-17.3 37.65-20.3 39-23.3 41.62-24.88 44.25-26.45 48-26.45L48-26.45Q51.4-26.45 53.67-24.98 55.95-23.5 57.07-20.6 58.2-17.7 58.2-13.5L58.2-13.5Q58.2-13.05 57.95-12.55 57.7-12.05 57.3-11.7 56.9-11.35 56.45-11.35L56.45-11.35 40.7-11.35Q40.8-7.2 42.65-5.25 44.5-3.3 48.3-3.3L48.3-3.3Q50.7-3.3 52.37-3.85 54.05-4.4 55.02-4.95 56-5.5 56.25-5.5L56.25-5.5Q56.59-5.5 56.87-5.08 57.15-4.65 57.34-4.1 57.55-3.55 57.55-3.15L57.55-3.15Q57.55-2.7 56.82-2.13 56.09-1.55 54.82-0.98 53.55-0.4 51.84-0.05 50.15 0.3 48.2 0.3ZM40.7-14.95L40.7-14.95 53.9-14.95Q53.9-18.9 52.25-20.88 50.59-22.85 47.55-22.85L47.55-22.85Q45.34-22.85 43.84-21.88 42.34-20.9 41.55-19.15 40.75-17.4 40.7-14.95ZM74.64 0.3L74.64 0.3Q68.89 0.3 65.82-2.7 62.74-5.7 62.74-12.95L62.74-12.95Q62.74-17.3 64.09-20.3 65.44-23.3 68.07-24.88 70.69-26.45 74.44-26.45L74.44-26.45Q77.84-26.45 80.12-24.98 82.39-23.5 83.52-20.6 84.64-17.7 84.64-13.5L84.64-13.5Q84.64-13.05 84.39-12.55 84.14-12.05 83.74-11.7 83.34-11.35 82.89-11.35L82.89-11.35 67.14-11.35Q67.24-7.2 69.09-5.25 70.94-3.3 74.74-3.3L74.74-3.3Q77.14-3.3 78.82-3.85 80.49-4.4 81.47-4.95 82.44-5.5 82.69-5.5L82.69-5.5Q83.04-5.5 83.32-5.08 83.59-4.65 83.79-4.1 83.99-3.55 83.99-3.15L83.99-3.15Q83.99-2.7 83.27-2.13 82.54-1.55 81.27-0.98 79.99-0.4 78.29-0.05 76.59 0.3 74.64 0.3ZM67.14-14.95L67.14-14.95 80.34-14.95Q80.34-18.9 78.69-20.88 77.04-22.85 73.99-22.85L73.99-22.85Q71.79-22.85 70.29-21.88 68.79-20.9 67.99-19.15 67.19-17.4 67.14-14.95ZM98.64 0.3L98.64 0.3Q95.64 0.3 93.52-1.23 91.39-2.75 90.29-5.7 89.19-8.65 89.19-12.9L89.19-12.9Q89.19-16.85 90.32-19.9 91.44-22.95 93.54-24.7 95.64-26.45 98.54-26.45L98.54-26.45Q100.54-26.45 102.52-25.8 104.49-25.15 105.89-24.1L105.89-24.1 105.89-36.5Q105.89-37.05 106.39-37.33 106.89-37.6 107.99-37.6L107.99-37.6 108.19-37.6Q109.24-37.6 109.72-37.33 110.19-37.05 110.19-36.5L110.19-36.5 110.19-7.5Q110.19-5.45 110.32-4.15 110.44-2.85 110.57-2.13 110.69-1.4 110.69-1.05L110.69-1.05Q110.69-0.8 110.39-0.6 110.09-0.4 109.64-0.28 109.19-0.15 108.69-0.08 108.19 0 107.79 0L107.79 0Q107.34 0 107.09-0.33 106.84-0.65 106.64-1.43 106.44-2.2 106.19-3.45L106.19-3.45Q105.19-2.3 103.92-1.45 102.64-0.6 101.29-0.15 99.94 0.3 98.64 0.3ZM99.94-3.4L99.94-3.4Q101.54-3.4 103.17-4.33 104.79-5.25 105.89-6.85L105.89-6.85 105.89-20.05Q104.39-21.4 102.69-22.1 100.99-22.8 99.39-22.8L99.39-22.8Q96.64-22.8 95.12-20.23 93.59-17.65 93.59-12.9L93.59-12.9Q93.59-7.95 95.32-5.68 97.04-3.4 99.94-3.4ZM129.04 0.3L129.04 0.3Q123.39 0.3 120.41-3.1 117.44-6.5 117.44-12.95L117.44-12.95Q117.44-19.45 120.44-22.95 123.44-26.45 129.04-26.45L129.04-26.45Q134.54-26.45 137.46-22.98 140.39-19.5 140.39-12.95L140.39-12.95Q140.39-6.45 137.51-3.08 134.64 0.3 129.04 0.3ZM128.89-3.3L128.89-3.3Q132.54-3.3 134.26-5.68 135.99-8.05 135.99-13.05L135.99-13.05Q135.99-18.05 134.26-20.45 132.54-22.85 128.89-22.85L128.89-22.85Q125.24-22.85 123.54-20.48 121.84-18.1 121.84-13.05L121.84-13.05Q121.84-8.05 123.54-5.68 125.24-3.3 128.89-3.3ZM149.99 0.1L149.59 0.1Q148.49 0.1 148.06-0.2 147.64-0.5 147.64-1L147.64-1 147.64-18.65Q147.64-20.7 147.51-22 147.39-23.3 147.26-24.05 147.14-24.8 147.14-25.1L147.14-25.1Q147.14-25.35 147.44-25.55 147.74-25.75 148.19-25.88 148.64-26 149.14-26.05 149.64-26.1 150.04-26.1L150.04-26.1Q150.49-26.1 150.74-25.78 150.99-25.45 151.19-24.73 151.39-24 151.64-22.7L151.64-22.7Q152.64-23.9 153.84-24.73 155.04-25.55 156.39-26 157.74-26.45 159.09-26.45L159.09-26.45Q160.79-26.45 162.16-25.98 163.54-25.5 164.59-24.6 165.64-23.7 166.29-22.3L166.29-22.3Q167.29-23.6 168.56-24.53 169.84-25.45 171.26-25.95 172.69-26.45 174.09-26.45L174.09-26.45Q176.54-26.45 178.31-25.48 180.09-24.5 181.04-22.7 181.99-20.9 181.99-18.35L181.99-18.35 181.99-1Q181.99-0.5 181.56-0.2 181.14 0.1 180.04 0.1L180.04 0.1 179.64 0.1Q178.54 0.1 178.11-0.2 177.69-0.5 177.69-1L177.69-1 177.69-17.95Q177.69-20.35 176.49-21.58 175.29-22.8 172.89-22.8L172.89-22.8Q172.04-22.8 171.19-22.55 170.34-22.3 169.54-21.8 168.74-21.3 167.99-20.6 167.24-19.9 166.64-18.95L166.64-18.95 166.59-20.65Q166.89-20.1 166.94-19.5 166.99-18.9 166.99-18.35L166.99-18.35 166.99-1Q166.99-0.5 166.56-0.2 166.14 0.1 165.04 0.1L165.04 0.1 164.64 0.1Q163.54 0.1 163.11-0.2 162.69-0.5 162.69-1L162.69-1 162.69-17.95Q162.69-20.35 161.49-21.58 160.29-22.8 157.89-22.8L157.89-22.8Q156.74-22.8 155.64-22.38 154.54-21.95 153.59-21.18 152.64-20.4 151.94-19.35L151.94-19.35 151.94-1Q151.94-0.5 151.51-0.2 151.09 0.1 149.99 0.1L149.99 0.1Z" opacity="1" transform="matrix(1,0,0,1,0,0)" fill="#d2dbc8" class="wordmark-text-0" data-fill-palette-color="primary" id="text-0"></path></svg></g></svg></g></svg></g></svg></g><g transform="matrix(1,0,0,1,0,0.20917978900610024)"><svg viewBox="0 0 96.86849289544585 83.67191560244308" height="83.67191560244308" width="96.86849289544585"><g><svg xmlns="http://www.w3.org/2000/svg" xmlns:xlink="http://www.w3.org/1999/xlink" version="1.1" x="0" y="0" viewBox="15.5 16.7 69 59.599999999999994" enable-background="new 0 0 100 100" xml:space="preserve" height="83.67191560244308" width="96.86849289544585" class="icon-icon-0" data-fill-palette-color="accent" id="icon-0"><g fill="#f8f8ec" data-fill-palette-color="accent"><path fill-rule="evenodd" clip-rule="evenodd" d="M84.5 76.3L71.3 57.6C74.3 53.4 76 48.3 76 42.7 76 28.4 64.4 16.7 50 16.7 35.7 16.7 24 28.3 24 42.7 24 48.2 25.7 53.4 28.7 57.6L15.5 76.3zM52.4 69.7C52.5 68.6 52.6 67.5 52.6 66.4 52.7 64.6 52.9 62.7 53 60.9 53 60.6 53 60.2 53.1 59.9 53.2 59.4 53.6 59.3 54 59.6 54.1 59.7 54.2 59.8 54.4 59.9 54.8 60.2 55.1 60.6 55.5 60.9 56.2 61.4 57.1 61.2 57.5 60.6S57.8 59.3 57.3 58.8C56.4 57.9 55.5 56.9 54.5 56.1 53.9 55.5 53.1 55.2 52.3 55.1S50.8 55.1 50 55.1H48.2C47.2 55.1 46.3 55.4 45.5 56.1 44.5 57 43.6 58 42.6 58.9 42.3 59.2 42.1 59.6 42.2 60.1 42.4 61.2 43.5 61.7 44.4 61 44.7 60.8 45 60.5 45.3 60.2 45.5 60 45.7 59.8 45.9 59.7 46.3 59.4 46.7 59.6 46.8 60 46.9 60.2 46.9 60.5 46.9 60.7 47 62.5 47.2 64.2 47.3 66L47.6 69.9H28.3L46.5 44.2H53.5L71.7 69.9H52.4zM62.5 33.4C63.6 33.4 64.5 34.3 64.5 35.4S63.6 37.4 62.5 37.4 60.5 36.5 60.5 35.4 61.4 33.4 62.5 33.4M51.3 22.2C55.2 22.2 58.3 25.3 58.3 29.2S55.2 36.2 51.3 36.2 44.3 33.1 44.3 29.2 47.4 22.2 51.3 22.2M38.7 29.7C39.2 29.7 39.7 30.1 39.7 30.7 39.7 31.2 39.3 31.7 38.7 31.7 38.2 31.7 37.7 31.3 37.7 30.7S38.2 29.7 38.7 29.7M36.3 37.3C37.4 37.3 38.2 38.2 38.2 39.2 38.2 40.3 37.3 41.1 36.3 41.1 35.2 41.1 34.4 40.2 34.4 39.2S35.3 37.3 36.3 37.3" fill="#f8f8ec" data-fill-palette-color="accent"></path><path fill-rule="evenodd" clip-rule="evenodd" d="M50 48.6C48.5 48.6 47.2 49.8 47.2 51.4 47.2 52.9 48.4 54.1 50 54.1 51.5 54.1 52.8 52.9 52.8 51.4 52.8 49.8 51.6 48.6 50 48.6" fill="#f8f8ec" data-fill-palette-color="accent"></path></g></svg></g></svg></g></svg></g><defs></defs></svg><rect width="395.52" height="61.65539668466688" fill="none" stroke="none" visibility="hidden"></rect></g></svg></g></svg>